<svg height="512" width="512" xmlns="http://www.w3.org/2000/svg">
  <path d="M449.441 393.818V178.852c0-31.555-27.967-57.236-62.365-57.236H369.99v-3.434c0-31.566-27.967-57.236-62.365-57.236h-182.7c-34.388 0-62.365 25.67-62.365 57.236v214.965c0 31.555 27.978 57.236 62.365 57.236h17.084v3.435c0 31.565 27.978 57.235 62.366 57.235h182.7c34.399 0 62.366-25.669 62.366-57.235zm-85.4 38.5H204.375c-23.177 0-41.956-17.237-41.956-38.5V178.852c0-21.263 18.779-38.5 41.956-38.5H387.075c23.177 0 41.956 17.237 41.956 38.5v214.966c0 21.263-18.779 38.5-41.956 38.5h-23.034z" />
  <path d="M197.397 214.935h162.334c4.484 0 8.115-3.632 8.115-8.116s-3.631-8.115-8.115-8.115H197.397c-4.484 0-8.116 3.631-8.116 8.115s3.632 8.116 8.116 8.116zM223.046 261.967c0 4.484 3.642 8.115 8.126 8.115h152.119c4.484 0 8.126-3.631 8.126-8.115s-3.642-8.127-8.126-8.127H231.172c-4.484 0-8.126 3.642-8.126 8.127zM348.083 317.102a8.114 8.114 0 0 0-8.116-8.116h-142.57c-4.484 0-8.116 3.632-8.116 8.116s3.631 8.126 8.116 8.126h142.57c4.484 0 8.116-3.641 8.116-8.126zM391.417 372.249c0-4.484-3.642-8.115-8.126-8.115H249.689c-4.484 0-8.116 3.631-8.116 8.115s3.631 8.116 8.116 8.116h133.602c4.485 0 8.126-3.632 8.126-8.116z" />
</svg>
